<?xml version="1.0" encoding="utf-8"?>
<!-- Generator: Adobe Illustrator 23.0.3, SVG Export Plug-In . SVG Version: 6.00 Build 0)  -->
<svg version="1.1" id="Capa_1" xmlns="http://www.w3.org/2000/svg" xmlns:xlink="http://www.w3.org/1999/xlink" x="0px" y="0px"
	 viewBox="0 0 466.46 385.8" style="enable-background:new 0 0 466.46 385.8;" xml:space="preserve">
<g>
	<path d="M466.46,147.81c-1.08,27.77-10.82,59.25-35.3,85.01c-55.33,58.2-120.06,104.65-186.41,149.08
		c-7.91,5.3-15.16,5.15-22.91-0.1c-67.59-45.73-135.38-91.64-189.58-153.42C-32.67,154.37,5.65,31.4,100.53,5.24
		C143.9-6.72,183.75,3.87,219.8,28.76c10.61,7.33,16.92,6.79,27.34-0.13C292.39-1.4,340.64-10.86,391.02,15.1
		C438.09,39.35,466.63,88.31,466.46,147.81z M447.93,134.78c-0.7-4.9-1.23-14.42-3.48-23.52c-21.41-86.69-115.52-120.32-188.54-66
		c-17.15,12.76-26.53,15.69-44.5,0.63c-28.65-24.01-64.04-33.23-101.46-24.31C23.46,42.2-11.43,153.67,48.47,219.32
		c51.71,56.67,114.55,100.07,177.28,143.4c5.91,4.08,10.49,3.35,15.98-0.46c62.14-43.12,123.94-86.64,176.12-142.09
		C439.22,197.45,448.03,170.03,447.93,134.78z"/>
</g>
</svg>
