<?xml version="1.0" encoding="utf-8"?>
<!-- Generator: Adobe Illustrator 23.0.3, SVG Export Plug-In . SVG Version: 6.00 Build 0)  -->
<svg version="1.1" id="Capa_1" xmlns="http://www.w3.org/2000/svg" xmlns:xlink="http://www.w3.org/1999/xlink" x="0px" y="0px"
	 viewBox="0 0 466.46 466.7" style="enable-background:new 0 0 466.46 466.7;" xml:space="preserve">
<g>
	<path d="M233.48,116.23c66.57-0.15,120.54,53.48,120.79,120.05c0.25,67.11-53.6,121.16-120.67,121.13
		c-66.7-0.03-120.49-53.72-120.5-120.27C113.1,170.08,166.56,116.38,233.48,116.23z"/>
	<path d="M235.79,0c7.07,21.16,13.75,41.15,20.43,61.15c1.53,4.57,3.02,9.14,4.59,13.7c0.71,2.06,0.92,3.41-2.08,3.39
		c-17.47-0.08-34.95-0.04-53.27-0.04C215.55,52.16,225.44,26.67,235.79,0z"/>
	<path d="M261.74,388.89c-8.55,25.66-17.04,51.13-25.93,77.81c-10.29-26.5-20.15-51.89-30.22-77.81
		C224.46,388.89,242.78,388.89,261.74,388.89z"/>
	<path d="M400.08,396.49c-26.34-11.58-51.24-22.52-77.4-34.02c4.72-4.36,9.07-8.18,13.2-12.24c8.3-8.16,16.46-16.46,24.73-24.66
		c1.11-1.1,2.25-3.53,3.9-0.23C376.1,348.63,387.77,371.89,400.08,396.49z"/>
	<path d="M103.77,143.15c-11.26-25.6-22.19-50.46-33.72-76.68c8.56,4.31,15.77,7.95,22.99,11.57c15.46,7.73,30.9,15.51,46.41,23.12
		c3,1.47,4.25,2.26,1.16,5.27C128.35,118.37,116.34,130.57,103.77,143.15z"/>
	<path d="M466.46,234.68c-26.48,10.29-51.96,20.19-78.1,30.35c0-9.77,0-18.72,0-27.67c0-7.99,0.18-15.99-0.08-23.98
		c-0.13-3.86,0.51-4.79,4.51-3.4c17.9,6.19,35.91,12.06,53.88,18.06C452.95,230.13,459.21,232.25,466.46,234.68z"/>
	<path d="M78.03,265.05C51.9,254.89,26.41,244.98,0,234.71c7.58-2.6,14.29-4.95,21.03-7.19c17.49-5.83,35.04-11.51,52.48-17.5
		c3.84-1.32,4.66-0.71,4.61,3.35C77.91,230.32,78.03,247.27,78.03,265.05z"/>
	<path d="M105.86,325.7c13.01,12.99,25.5,25.41,37.91,37.9c3.08,3.1-0.83,3.07-2.05,3.61c-19.87,8.85-39.8,17.58-59.72,26.33
		c-3.75,1.65-7.51,3.29-12.12,4.2C81.77,373.96,93.65,350.16,105.86,325.7z"/>
	<path d="M398.33,70.88c-4.37,9.98-8.73,19.96-13.11,29.94c-6.01,13.68-12.11,27.33-18.01,41.05c-1.28,2.97-2.05,3.99-4.84,1.13
		c-11.28-11.54-22.78-22.86-34.17-34.31c-1.09-1.1-3.53-2.26-0.25-3.89c23.18-11.54,46.33-23.14,69.49-34.72
		C397.73,70.35,398.03,70.62,398.33,70.88z"/>
</g>
</svg>
